<?xml version="1.0" standalone="no"?>
<!DOCTYPE svg PUBLIC "-//W3C//DTD SVG 20010904//EN"
 "http://www.w3.org/TR/2001/REC-SVG-20010904/DTD/svg10.dtd">
<svg version="1.0" xmlns="http://www.w3.org/2000/svg"
 width="512.000000pt" height="512.000000pt" viewBox="0 0 512.000000 512.000000"
 preserveAspectRatio="xMidYMid meet">
<metadata>
Created by potrace 1.14, written by Peter Selinger 2001-2017
</metadata>
<g transform="translate(0.000000,512.000000) scale(0.100000,-0.100000)"
fill="#000000" stroke="none">
<path d="M1809 4609 c-40 -9 -59 -28 -63 -65 -4 -40 12 -71 43 -83 17 -7 230
-12 601 -13 l575 -3 70 -29 c178 -74 289 -200 335 -382 16 -62 20 -111 20
-245 l0 -167 31 -26 c35 -30 35 -30 76 -16 52 18 55 37 51 261 -4 192 -5 209
-31 284 -86 248 -292 429 -541 476 -66 13 -1109 19 -1167 8z"/>
<path d="M538 4218 c-128 -26 -229 -117 -273 -244 -16 -45 -17 -124 -17 -894
0 -640 2 -859 12 -901 25 -112 130 -220 246 -254 29 -8 57 -15 61 -14 4 1 59
1 121 0 l112 -1 0 -399 c0 -376 1 -400 19 -422 14 -17 29 -24 58 -24 34 0 54
13 193 129 85 70 173 143 195 161 93 76 422 348 440 363 11 9 68 56 127 105
l107 87 74 0 75 0 4 -227 c4 -222 4 -230 30 -285 44 -95 151 -182 250 -204 13
-3 243 -5 513 -6 l489 0 140 -109 c144 -112 170 -124 210 -94 17 13 26 9 98
-47 59 -45 77 -65 72 -77 -4 -9 -7 -29 -7 -44 1 -33 -1 -31 206 -192 163 -127
192 -138 236 -92 21 24 22 28 22 339 l0 315 115 2 c170 2 247 34 326 133 32
40 58 93 73 146 9 30 9 1455 0 1502 -22 122 -121 232 -242 270 -53 16 -117 17
-745 18 -379 0 -694 1 -701 1 -11 1 -14 64 -14 334 -1 285 -3 339 -18 381 -44
127 -148 221 -268 242 -23 4 -325 8 -672 9 -682 2 -688 1 -701 -51 -8 -30 -18
-32 -144 -30 -101 1 -105 2 -108 24 -2 12 -15 30 -29 39 -23 16 -62 17 -339
18 -172 0 -328 -3 -346 -7z"/>
<path d="M1779 1320 c-36 -36 -36 -62 0 -133 99 -193 274 -328 484 -371 60
-13 142 -16 381 -16 l305 0 26 26 c21 21 25 33 21 62 -9 71 -13 72 -330 73
-154 0 -301 2 -326 5 -165 21 -324 129 -404 275 -60 110 -105 132 -157 79z"/>
</g>
</svg>
